<svg xmlns="http://www.w3.org/2000/svg" xmlns:xlink="http://www.w3.org/1999/xlink" viewBox="0 0 127.88 218.21"><defs><style>.cls-1{font-size:197.96px;fill:#231f20;font-family:ColonnaMT, Colonna MT;}.cls-2{fill:url(#Orange_Yellow);}</style><linearGradient id="Orange_Yellow" x1="2.03" y1="100.09" x2="125.85" y2="100.09" gradientUnits="userSpaceOnUse"><stop offset="0" stop-color="#fff33b"/><stop offset="0.04" stop-color="#fee72e"/><stop offset="0.12" stop-color="#fed51b"/><stop offset="0.2" stop-color="#fdca10"/><stop offset="0.28" stop-color="#fdc70c"/><stop offset="0.67" stop-color="#f3903f"/><stop offset="0.89" stop-color="#ed683c"/><stop offset="1" stop-color="#e93e3a"/></linearGradient></defs><g id="Layer_2" data-name="Layer 2"><g id="Layer_1-2" data-name="Layer 1"><text class="cls-1" transform="translate(0 150.55)">V</text><path class="cls-2" d="M20.2,48.67l50.85,97.05-3.39,7H66.12L22.81,70.42Q13.15,51.86,2,49.25V47.51ZM50.55,75.83l24.07,45.53L97.15,74.09q4.72-9.86,4.73-14.79,0-7.63-7.54-10V47.51c-.13,0,1.68.16,5.41.48q7.45.67,11.7.68,3.39,0,14.4-1.16v1.74a27.85,27.85,0,0,0-10.34,7.25q-4,4.64-10.53,18.36L74.62,138.08,28,48.67q8.8,0,21-1.16v1.74q-5.61,1.55-5.61,7Q43.4,62.11,50.55,75.83Z"/></g></g></svg>